<?xml version="1.0" encoding="UTF-8" standalone="no"?>
<!-- Created with Inkscape (http://www.inkscape.org/) -->

<svg
   xmlns:dc="http://purl.org/dc/elements/1.1/"
   xmlns:cc="http://creativecommons.org/ns#"
   xmlns:rdf="http://www.w3.org/1999/02/22-rdf-syntax-ns#"
   xmlns:svg="http://www.w3.org/2000/svg"
   xmlns="http://www.w3.org/2000/svg"
   xmlns:sodipodi="http://sodipodi.sourceforge.net/DTD/sodipodi-0.dtd"
   xmlns:inkscape="http://www.inkscape.org/namespaces/inkscape"
   version="1.1"
   width="375"
   height="400"
   id="svg2"
   inkscape:version="0.48.3.1 r9886"
   sodipodi:docname="duck1.svg">
  <sodipodi:namedview
     pagecolor="#ffffff"
     bordercolor="#666666"
     borderopacity="1"
     objecttolerance="10"
     gridtolerance="10"
     guidetolerance="10"
     inkscape:pageopacity="0"
     inkscape:pageshadow="2"
     inkscape:window-width="1366"
     inkscape:window-height="717"
     id="namedview8"
     showgrid="false"
     inkscape:zoom="0.59"
     inkscape:cx="187.5"
     inkscape:cy="200"
     inkscape:window-x="0"
     inkscape:window-y="24"
     inkscape:window-maximized="1"
     inkscape:current-layer="svg2" />
  <metadata
     id="metadata8">
    <rdf:RDF>
      <cc:Work
         rdf:about="">
        <dc:format>image/svg+xml</dc:format>
        <dc:type
           rdf:resource="http://purl.org/dc/dcmitype/StillImage" />
        <dc:title></dc:title>
      </cc:Work>
    </rdf:RDF>
  </metadata>
  <defs
     id="defs6" />
  <path
     d="m -111.9308,-81.996433 25.668429,-16.399288 24.24243,-7.130119 27.807496,-1.42603 29.2335104,4.27808 22.8163896,10.695183 17.82532,14.260252 17.11229,21.390372 12.12122,27.094473 L 68.461355,0 l -3.56507,24.242419 -5.70411,17.825326 -9.26915,19.964341 -13.54724,15.686283 -12.12121,12.121215 -19.2513396,10.695176 -17.1123004,9.98217 27.80748,0 24.95544,3.56507 22.1034,7.84313 22.10338,12.83423 17.825315,7.84314 19.96436,2.13903 14.97325,-5.7041 12.12121,-14.97326 13.54724,-19.25134 11.4082,-14.260255 9.26916,-2.852039 12.12121,2.139048 8.55615,7.843124 10.69519,16.399292 9.26917,26.38146 4.27807,26.38146 0,41.35473 -2.13904,22.81639 -5.7041,24.95544 -7.84313,22.8164 -15.68628,29.94652 -27.09447,30.65954 -31.37255,23.52941 -37.78967,17.82531 -42.780755,11.4082 -39.21568,7.84314 -52.049902,-0.71301 -42.067742,-5.7041 -42.067721,-14.26026 -37.78968,-19.25132 -28.52049,-24.95544 -19.25134,-32.08557 -9.26916,-21.39036 -4.27808,-24.24243 1.42603,-23.52941 8.55614,-27.09448 18.53833,-27.80748 27.09448,-34.22461 19.96434,-23.52941 11.40821,-19.96434 2.31728,-13.547244 -1.96078,-9.625665 -6.06062,-7.664877 -3.3868,-5.525854 2.3173,-3.743321 4.27806,-1.604278 0.17827,-11.229944 -0.71301,-12.121216 -2.49555,-10.338683 c 0,0 -2.85205,-9.625651 -2.85205,-10.33867 0,-0.713012 -2.67379,-10.873447 -2.67379,-10.873447 l -0.89127,-12.2994644 0.17825,-11.7647006 2.67379,-10.695192 3.74332,-6.951872 2.49555,-2.139036 1.06951,-5.169338 -3.92158,-2.495545 0.17827,-3.743314 8.55615,-11.764707 9.09092,-13.547241 z"
     id="path2989"
     style="fill:none;stroke:#000000;stroke-width:1.68270946px;stroke-linecap:butt;stroke-linejoin:miter;stroke-opacity:1" />
  <path
     d="m -110.86129,-54.367196 -5.52585,8.734398 -1.96077,9.982174 0.53475,16.934045 2.85205,7.664891 6.0606,5.7040951 8.02139,2.8520545 7.130121,0.3565026 8.734404,-4.9910836 10.873434,-10.8734406 4.634588,-9.803926 3.20856,-10.87344 0,-11.408198 -1.247766,-10.516931 -5.704102,-6.595369 -5.525847,-4.278072 -7.66489,-0.534764 -9.625672,2.6738 -7.30837,5.704096 z"
     id="path2991"
     style="fill:none;stroke:#000000;stroke-width:1.68270946px;stroke-linecap:butt;stroke-linejoin:miter;stroke-opacity:1" />
  <path
     d="m -134.74722,-46.880567 -7.30837,3.030303 -10.16042,5.704102 -9.09091,4.278071 -9.80392,1.426024 -11.94296,-1.247769 -10.16043,-4.099824 -10.51693,-4.456326 -8.91265,-3.030302 -9.09091,-1.247776 -6.77362,2.139042 -4.27808,5.704096 -0.53475,9.090914 2.31729,13.725488 7.66488,12.8342216 10.16043,12.1212164 8.91265,7.308381 8.7344,5.169331 -3.20856,5.704102 -6.23886,2.852055 -5.70409,1.604279 -4.27807,3.565059 -1.42603,4.991084 0.89127,6.595362 3.74331,4.812836 7.48663,5.169351 7.84313,2.317291 12.47772,0.713012 8.0214,-0.356516 8.02138,0 11.0517,1.782526 11.7647,1.782533 6.95187,1.78254 2.3173,-3.743321 4.27806,-1.604278 0.17827,-11.229944 -0.71301,-12.121216 -8.02139,-31.5508 -0.89127,-12.2994644 0.17825,-11.7647006 2.67379,-10.695192 3.74332,-6.951872 2.49555,-2.139036 1.06951,-5.169338 z"
     id="path2993"
     style="fill:none;stroke:#000000;stroke-width:1.68270946px;stroke-linecap:butt;stroke-linejoin:miter;stroke-opacity:1" />
</svg>
